RBDS015runT25_grf
version=1
nRows=18
nColumns=19
inDegrees=no
endheader
time	ground_force_r_vx	ground_force_r_vy	ground_force_r_vz	ground_force_r_px	ground_force_r_py	ground_force_r_pz	ground_force_r_mx	ground_force_r_my	ground_force_r_mz	ground_force_l_vx	ground_force_l_vy	ground_force_l_vz	ground_force_l_px	ground_force_l_py	ground_force_l_pz	ground_force_l_mx	ground_force_l_my	ground_force_l_mz
     22.49800000	      0.00000000	      0.00000000	      0.00000000	      0.00000000	      0.00000000	      0.00000000	      0.00000000	      0.00000000	      0.00000000	     49.24200625	    117.47493175	      4.45529560	      1.80873369	      0.00000000	      0.95490189	      0.00000000	      1.36293348	      0.00000000
     22.49900000	      0.00000000	      0.00000000	      0.00000000	      0.00000000	      0.00000000	      0.00000000	      0.00000000	      0.00000000	      0.00000000	     46.92145669	    111.04348626	      4.63526222	      1.80681351	      0.00000000	      0.95481018	      0.00000000	      1.32353540	      0.00000000
     22.50000000	      0.00000000	      0.00000000	      0.00000000	      0.00000000	      0.00000000	      0.00000000	      0.00000000	      0.00000000	      0.00000000	     44.60090712	    104.61204077	      4.81522885	      1.80489334	      0.00000000	      0.95471848	      0.00000000	      1.28413733	      0.00000000
     22.50100000	      0.00000000	      0.00000000	      0.00000000	      0.00000000	      0.00000000	      0.00000000	      0.00000000	      0.00000000	      0.00000000	     42.49589345	     98.85297907	      4.97152666	      1.80306156	      0.00000000	      0.95464100	      0.00000000	      1.25441783	      0.00000000
     22.50200000	      0.00000000	      0.00000000	      0.00000000	      0.00000000	      0.00000000	      0.00000000	      0.00000000	      0.00000000	      0.00000000	     40.39087979	     93.09391738	      5.12782448	      1.80122977	      0.00000000	      0.95456351	      0.00000000	      1.22469833	      0.00000000
     22.50300000	      0.00000000	      0.00000000	      0.00000000	      0.00000000	      0.00000000	      0.00000000	      0.00000000	      0.00000000	      0.00000000	     38.28586612	     87.33485568	      5.28412229	      1.79939799	      0.00000000	      0.95448603	      0.00000000	      1.19497883	      0.00000000
     22.50400000	      0.00000000	      0.00000000	      0.00000000	      0.00000000	      0.00000000	      0.00000000	      0.00000000	      0.00000000	      0.00000000	     36.32896482	     82.01307060	      5.42487736	      1.79763859	      0.00000000	      0.95441773	      0.00000000	      1.17105791	      0.00000000
     22.50500000	      0.00000000	      0.00000000	      0.00000000	      0.00000000	      0.00000000	      0.00000000	      0.00000000	      0.00000000	      0.00000000	     34.44611970	     76.90992384	      5.55786107	      1.79591537	      0.00000000	      0.95435403	      0.00000000	      1.15003628	      0.00000000
     22.50600000	      0.00000000	      0.00000000	      0.00000000	      0.00000000	      0.00000000	      0.00000000	      0.00000000	      0.00000000	      0.00000000	     32.56327458	     71.80677707	      5.69084477	      1.79419216	      0.00000000	      0.95429032	      0.00000000	      1.12901465	      0.00000000
     22.50700000	      0.00000000	      0.00000000	      0.00000000	      0.00000000	      0.00000000	      0.00000000	      0.00000000	      0.00000000	      0.00000000	     30.75499620	     66.91493316	      5.81642260	      1.79251136	      0.00000000	      0.95423090	      0.00000000	      1.11049413	      0.00000000
     22.50800000	      0.00000000	      0.00000000	      0.00000000	      0.00000000	      0.00000000	      0.00000000	      0.00000000	      0.00000000	      0.00000000	     29.09585128	     62.44569498	      5.92718869	      1.79091538	      0.00000000	      0.95418006	      0.00000000	      1.09697585	      0.00000000
     22.50900000	      0.00000000	      0.00000000	      0.00000000	      0.00000000	      0.00000000	      0.00000000	      0.00000000	      0.00000000	      0.00000000	     27.43670637	     57.97645679	      6.03795479	      1.78931939	      0.00000000	      0.95412922	      0.00000000	      1.08345757	      0.00000000
     22.51000000	      0.00000000	      0.00000000	      0.00000000	      0.00000000	      0.00000000	      0.00000000	      0.00000000	      0.00000000	      0.00000000	     25.77756145	     53.50721861	      6.14872088	      1.78772341	      0.00000000	      0.95407838	      0.00000000	      1.06993928	      0.00000000
     22.51100000	      0.00000000	      0.00000000	      0.00000000	      0.00000000	      0.00000000	      0.00000000	      0.00000000	      0.00000000	      0.00000000	     24.33892365	     49.64460922	      6.23894742	      1.78627077	      0.00000000	      0.95403911	      0.00000000	      1.06259101	      0.00000000
     22.51200000	      0.00000000	      0.00000000	      0.00000000	      0.00000000	      0.00000000	      0.00000000	      0.00000000	      0.00000000	      0.00000000	     22.90028584	     45.78199984	      6.32917397	      1.78481812	      0.00000000	      0.95399984	      0.00000000	      1.05524273	      0.00000000
     22.51300000	      0.00000000	      0.00000000	      0.00000000	      0.00000000	      0.00000000	      0.00000000	      0.00000000	      0.00000000	      0.00000000	     21.46164804	     41.91939046	      6.41940051	      1.78336547	      0.00000000	      0.95396058	      0.00000000	      1.04789445	      0.00000000
     22.51400000	      0.00000000	      0.00000000	      0.00000000	      0.00000000	      0.00000000	      0.00000000	      0.00000000	      0.00000000	      0.00000000	     16.78568169	     32.50548320	      5.15958082	      1.42630500	      0.00000000	      0.76315799	      0.00000000	      0.83635602	      0.00000000
     22.51500000	      0.00000000	      0.00000000	      0.00000000	      0.00000000	      0.00000000	      0.00000000	      0.00000000	      0.00000000	      0.00000000	     10.49105105	     20.31592700	      3.22473801	      0.89144063	      0.00000000	      0.47697374	      0.00000000	      0.52272251	      0.00000000
